<svg width="148" height="148" viewBox="0 0 148 148" fill="none" xmlns="http://www.w3.org/2000/svg">
<g filter="url(#filter0_d_563_33)">
<circle cx="74" cy="74" r="60" fill="#FDF5F5"/>
<circle cx="74" cy="74" r="57" stroke="white" stroke-width="6"/>
</g>
<path fill-rule="evenodd" clip-rule="evenodd" d="M64.4077 65.1225V95.6858C64.4077 96.6025 64.6972 96.8678 65.6862 96.8678H80.5457V65.1225C80.5457 63.651 77.6028 62.8309 77.6028 64.7124V73.6619H67.3748V63.4822C65.9274 63.7958 64.4077 63.6269 64.4077 65.1225Z" fill="#E31E24"/>
<path fill-rule="evenodd" clip-rule="evenodd" d="M89.471 96.0718C90.3395 97.8086 89.5675 98.5082 87.7825 97.7121C88.1684 96.2889 87.9996 96.4336 89.471 96.0718ZM86.9382 96.8678C86.9382 97.9775 87.1312 98.0016 87.3483 98.9424C90.846 99.6902 90.0982 98.8941 91.3526 96.6507C92.4381 94.7209 91.3767 96.3854 93.2824 95.2275C94.1991 94.6968 94.585 94.2867 94.585 92.8152C94.585 90.3306 92.221 91.8745 97.3109 83.6004C99.2166 80.5369 98.9512 81.4776 100.929 80.561C104.065 79.1619 105.295 74.458 102.232 73.6619C101.581 76.2672 101.026 76.5084 99.2648 76.5084C96.1289 76.5084 98.5653 72.7453 98.8547 71.6356C94.9951 71.708 94.1749 74.1685 94.1749 76.9185C94.1749 79.8855 95.7429 77.7145 94.2232 81.8636C93.596 83.6245 92.8964 84.9272 92.4622 86.6881C90.6048 85.4096 86.7452 75.1334 85.5149 72.5764C85.0566 71.6597 84.7913 71.1773 84.4294 70.333L83.1027 67.969C83.1027 70.9361 83.1027 73.9514 83.1027 76.9185C83.0786 83.0215 84.0917 83.9623 87.3724 90.7889C89.9776 96.1683 86.9382 94.4073 86.9382 96.8678Z" fill="#E31E24"/>
<path fill-rule="evenodd" clip-rule="evenodd" d="M54.2038 84.6618C52.3223 82.6114 53.2148 82.9974 51.2368 83.4316C50.682 81.164 49.2828 79.7891 48.5592 77.4492C48.0526 75.8088 48.5109 75.7365 47.6666 74.2167C46.943 72.9624 46.5329 72.9141 46.1228 71.2255C44.989 71.322 44.9649 71.3944 44 71.6356C44.386 76.1465 46.6535 76.9908 47.353 78.5829C51.6951 88.2802 48.6798 82.5873 48.6798 85.0719C48.6798 87.05 49.4999 87.2429 50.8026 87.9184L50.9232 91.1267C50.8508 92.6946 49.8859 92.8152 50.9232 94.2867C51.9122 95.7341 52.5876 95.0104 53.5767 96.2889C53.842 96.6507 54.7828 98.7976 55.0723 99.3283L58.4735 98.1463C59.342 97.5433 58.8595 98.3634 59.2937 97.302C59.342 97.2297 59.3661 97.0126 59.3661 97.0608L59.4626 96.5784C59.3661 94.8898 57.581 93.2253 57.581 91.9951C57.581 89.9929 61.1753 84.1552 61.9231 81.8877C62.8397 79.186 62.2849 71.6597 62.2849 67.969C61.1511 68.7409 54.6622 82.8044 54.2038 84.6618Z" fill="#E31E24"/>
<path fill-rule="evenodd" clip-rule="evenodd" d="M65.252 54.0984C65.252 63.1444 75.2629 62.469 78.0852 59.4778C84.4053 52.844 74.4427 44.4253 67.7849 49.6116C66.82 50.3835 65.252 52.4581 65.252 54.0984Z" fill="#E31E24"/>
<defs>
<filter id="filter0_d_563_33" x="0" y="0" width="148" height="148" filterUnits="userSpaceOnUse" color-interpolation-filters="sRGB">
<feFlood flood-opacity="0" result="BackgroundImageFix"/>
<feColorMatrix in="SourceAlpha" type="matrix" values="0 0 0 0 0 0 0 0 0 0 0 0 0 0 0 0 0 0 127 0" result="hardAlpha"/>
<feOffset/>
<feGaussianBlur stdDeviation="7"/>
<feComposite in2="hardAlpha" operator="out"/>
<feColorMatrix type="matrix" values="0 0 0 0 0 0 0 0 0 0 0 0 0 0 0 0 0 0 0.05 0"/>
<feBlend mode="normal" in2="BackgroundImageFix" result="effect1_dropShadow_563_33"/>
<feBlend mode="normal" in="SourceGraphic" in2="effect1_dropShadow_563_33" result="shape"/>
</filter>
</defs>
</svg>
