<svg width="148" height="148" viewBox="0 0 148 148" fill="none" xmlns="http://www.w3.org/2000/svg">
<g filter="url(#filter0_d_563_18)">
<circle cx="74" cy="74" r="60" fill="#FDF5F5"/>
<circle cx="74" cy="74" r="57" stroke="white" stroke-width="6"/>
</g>
<path fill-rule="evenodd" clip-rule="evenodd" d="M48.6609 75.5012C48.7347 76.8305 46.2608 77.7166 44.6362 76.5351C43.1961 75.4273 42.4576 72.5842 43.4915 70.8488C44.5623 69.0026 48.6978 69.0395 50.6178 69.0764C50.6178 69.0764 52.1317 70.3687 52.5379 70.7011C51.8733 70.5903 51.2086 70.5164 50.5071 70.5164C47.7378 70.4426 45.0054 70.6641 44.4885 71.9934C43.75 73.9504 45.0423 75.7597 45.8177 75.9812C45.6331 75.7227 45.5223 75.6489 45.5223 75.0212C45.5593 74.3935 46.2977 73.4334 47.1839 73.4704C48.0701 73.5073 48.7347 74.615 48.6978 75.1319C48.6978 75.6489 48.6978 75.3535 48.6609 75.5012ZM77.5724 68.6333C78.3109 68.9287 78.5693 70.1103 78.2001 71.218C77.8308 72.3626 76.9447 72.9904 76.2431 72.658C75.5416 72.3257 75.2831 71.1442 75.6523 70.0364C76.0216 68.9287 76.8708 68.301 77.5724 68.6333ZM72.9938 65.5686C72.3661 65.1255 71.2214 65.4579 70.446 66.3071C69.6337 67.1933 69.5229 68.2641 70.1507 68.7441C70.7784 69.1872 71.923 68.8549 72.6984 68.0056C73.4738 67.1194 73.6215 66.0486 72.9938 65.5686ZM50.5809 68.2272V68.1902C50.2855 68.1902 49.8794 68.1902 49.5101 68.2272C50.2486 66.6025 51.2086 65.0886 52.2794 63.7224C52.9441 64.0917 53.7195 64.2394 54.421 64.2024C54.901 64.1655 55.381 64.0547 55.7872 63.8701C55.9718 63.7963 56.1195 63.6855 56.2672 63.6117C55.381 64.4978 54.5687 65.4948 53.8302 66.5656L85.3633 92.117C85.4741 91.6739 85.6587 91.2677 85.9172 91.0831C87.2465 89.9385 87.985 91.8585 88.0957 91.8585C88.3173 91.8954 86.6557 91.0831 86.3603 92.0801C86.3234 92.2647 86.2864 92.5601 86.2864 92.8924L86.3603 92.9293L86.3234 93.0401C86.3972 94.4432 87.0988 96.2894 88.5757 95.1817C89.0188 94.8124 89.4988 94.1478 89.7942 93.1139C90.0896 91.9693 90.3112 90.677 90.2004 89.5692C89.905 86.6153 87.7634 84.4368 85.4372 84.0676C83.2956 83.6983 80.4155 84.3629 77.9416 85.2491L72.1815 80.5598C72.5876 80.5967 73.0307 80.6336 73.4738 80.6336C79.234 80.5967 80.674 76.7935 80.674 76.7935C78.4955 78.012 75.5416 76.9043 73.2523 76.4612L72.403 78.0489L71.0368 77.532L71.7384 75.575L69.4122 74.2088L67.9721 75.7966L66.9383 75.095C66.9013 75.0581 68.1568 73.5442 68.1937 73.3227C68.3045 72.8796 65.7936 69.741 64.132 68.6333C63.7628 68.4118 63.5782 71.4395 64.7228 74.5042L56.5257 67.8579C62.8028 64.7194 61.9166 56.3745 56.1565 56.5961C55.4549 56.633 54.4579 56.8915 53.6087 57.2607C50.7286 58.5531 51.9102 61.7655 53.6087 62.2455C53.4241 61.987 53.3133 61.9132 53.3133 61.2854C53.3502 60.6577 54.0887 59.7346 54.9749 59.7346C55.8241 59.7716 56.4888 60.9162 56.4888 61.3962C56.4888 61.9132 56.4518 61.6547 56.4518 61.7655C56.5257 63.1316 54.0149 63.9809 52.4271 62.7993C48.4763 59.8454 51.1717 55.5253 56.1195 54.8976C59.0734 54.5283 62.2489 56.4484 65.3136 57.0023C73.9907 58.59 72.0707 45.7774 69.8553 45.2604C67.8244 44.7435 66.4583 46.1097 66.2367 46.8851C66.4952 46.7005 66.569 46.5897 67.1967 46.5897C67.7875 46.6266 68.7475 47.3651 68.7106 48.2513C68.6368 51.3898 63.0612 49.3959 65.6828 45.7035C66.7536 44.2265 69.6337 43.4511 71.3691 44.4481C75.2092 46.6635 70.3722 57.8884 75.4308 59.7346C82.2617 62.2455 83.2218 49.2482 87.7265 48.9528C89.7204 48.8421 91.9727 50.8729 92.2681 52.6452C92.6005 54.6391 90.6804 56.4853 89.5358 55.8207C89.425 55.7838 89.3142 55.7468 89.2034 55.673C88.3911 55.3038 88.0588 54.3437 88.428 53.5683C88.7973 52.756 89.7573 52.3868 90.5327 52.7929C90.865 52.9406 91.0866 53.1622 91.2712 53.4576C91.4189 52.6821 90.7543 50.8359 88.7604 50.3559C85.4003 49.5805 82.5202 56.8915 82.8156 61.2485C83.0371 64.4978 87.7265 65.9748 90.2004 64.0547C92.6374 62.1716 96.1821 60.1039 97.8067 60.9162C99.3206 61.6916 99.9853 63.9809 99.4314 65.4209C98.8037 67.0456 96.6252 67.5994 96.0344 66.5656C95.9605 66.4917 95.9236 66.4179 95.8498 66.344C95.4067 65.7163 95.5913 64.8671 96.1821 64.424C96.8098 63.9809 97.659 64.1286 98.1021 64.7563C98.2498 65.0148 98.3237 65.3102 98.3237 65.6056C99.2099 64.5717 98.7298 61.6547 96.4405 62.0239C92.3051 62.6147 81.9294 69.3718 96.0344 74.2827C97.2529 74.7258 100.871 76.055 102.238 75.3904C103.53 74.7627 103.308 73.5811 102.865 73.3227C102.865 73.4704 102.902 73.5442 102.607 73.7658C102.311 73.9873 101.462 73.9873 100.835 73.7658C99.8006 73.3965 100.539 72.658 101.204 72.3996C103.235 71.5503 106.262 75.0581 102.09 76.1289C99.7637 76.7197 95.1851 75.9812 91.9727 76.4612C88.945 76.9412 87.1726 78.6397 87.948 80.5967C90.3112 86.4676 93.7451 89.6062 91.0496 95.034C90.2742 96.6217 88.7604 97.3233 86.8772 96.5479C86.2126 96.2894 85.7695 95.6986 85.511 95.034L85.031 96.1786L50.5809 68.2272ZM73.363 87.5753C73.2523 87.6861 73.1784 87.76 73.1046 87.8338C70.5568 91.3416 72.6615 99.0956 76.1693 101.717C67.9721 102.714 68.4521 92.8924 68.046 86.0984C63.652 85.6553 64.4274 99.0218 66.3844 102.234C61.0304 102.493 61.5474 89.8277 62.4335 85.803C62.4335 85.803 61.1043 86.1722 59.2581 88.5354C57.4119 90.9354 58.6304 97.3602 58.6304 97.3602C58.6304 97.3602 57.7811 96.6956 56.8211 95.2555C54.6795 92.117 56.7842 86.3938 59.2581 84.5106C61.2889 82.9598 61.9535 80.3382 61.252 77.7905L73.363 87.5753ZM78.3109 65.864C79.714 66.5287 80.2309 68.8549 79.4924 71.0334C78.7909 73.2488 77.0554 74.5042 75.6523 73.8396C74.2861 73.2119 73.7323 70.8857 74.4708 68.6702C75.2092 66.4917 76.9077 65.1994 78.3109 65.864ZM74.7662 63.7963C73.5477 62.8732 71.2584 63.5378 69.7076 65.2363C68.1937 66.9717 67.9352 69.1133 69.1906 70.0364C70.446 70.9226 72.6984 70.258 74.2492 68.5595C75.8 66.824 76.0216 64.6825 74.7662 63.7963ZM73.7692 54.3437C76.317 54.5653 78.7539 55.1561 81.0432 56.1161C80.4155 57.0761 79.7509 57.9254 79.0124 58.4792C77.4985 57.9254 75.8739 57.5192 74.2123 57.3346C73.88 56.5222 73.7692 55.4514 73.7692 54.3437ZM83.9972 57.63C86.3972 59.0331 88.5019 60.8424 90.2742 62.947C90.0527 63.0947 89.8681 63.2424 89.6835 63.3901C89.1665 63.7963 88.5019 64.0178 87.8003 64.0547C87.6526 64.0547 87.5049 64.0547 87.3942 64.0547C86.2495 62.8732 84.9941 61.8024 83.6648 60.8793C83.6279 59.8823 83.7387 58.7746 83.9972 57.63ZM91.862 65.0517C93.5236 67.4887 94.779 70.2211 95.4805 73.175C93.9666 72.5842 92.7851 71.9934 91.8989 71.4026C91.382 69.9995 90.7173 68.6333 89.905 67.3779C90.1635 66.824 90.5696 66.2702 91.0866 65.7532C91.3081 65.4948 91.6035 65.2732 91.862 65.0517ZM96.1082 77.1628C96.1452 77.7905 96.1821 78.4551 96.1821 79.0828C96.1821 83.6245 94.9636 87.8707 92.8958 91.5262C92.9697 89.9016 92.5266 88.4246 91.862 86.8738C92.7851 84.4737 93.2651 81.8521 93.2651 79.0828C93.2651 78.4551 93.2282 77.8274 93.1912 77.1997C94.1143 77.1258 95.1113 77.1258 96.1082 77.1628ZM87.9111 97.6925C83.5541 101.606 77.8678 103.97 71.5907 103.97C58.0396 103.97 47.0362 92.8186 47.0362 79.0828C47.0362 78.6767 47.0362 78.2705 47.0362 77.8643C47.4055 77.8274 47.7378 77.7166 48.0332 77.5689C48.4763 77.3843 48.8455 77.0889 49.104 76.7197C49.2147 76.6089 49.2886 76.4612 49.3255 76.3135C49.4732 76.1289 49.5471 75.7597 49.5471 75.1689C49.584 74.6889 49.2517 73.9504 48.7716 73.3965C48.5132 73.1381 48.2178 72.8796 47.8485 72.7319C47.9593 72.2888 48.0701 71.8457 48.2178 71.4026C48.9193 71.3288 49.6947 71.3288 50.4702 71.3657C50.7655 71.3657 51.024 71.4026 51.2825 71.4026C50.3963 73.8027 49.9163 76.3874 49.9163 79.0828C49.9163 84.5845 51.9102 89.6062 55.1964 93.4463C55.381 94.2586 55.6764 95.0709 56.1195 95.7355C57.1534 97.2864 58.1134 98.0248 58.1134 98.0248L59.8858 99.391L59.4796 97.2494C60.2181 97.7664 60.9935 98.2464 61.8058 98.6525C61.8797 98.9479 61.9904 99.2064 62.0643 99.5018C62.7289 101.311 63.7997 102.64 65.3875 103.01C65.7198 103.083 66.0521 103.083 66.4213 103.083L67.8244 103.01L67.086 101.791C66.9013 101.459 66.6798 100.979 66.5321 100.425C67.8244 100.72 69.1537 100.905 70.483 100.979C71.7753 102.234 73.6215 102.899 76.2431 102.566L78.3478 102.308L76.6493 101.016C76.4647 100.868 76.28 100.72 76.0954 100.536C79.4555 99.8341 82.5571 98.3202 85.1418 96.1786C85.2156 96.2894 85.2895 96.3633 85.3264 96.4371C85.6587 96.8433 86.0649 97.1387 86.5449 97.3602C87.0249 97.5448 87.468 97.6556 87.9111 97.6925ZM56.4149 59.55C57.0796 58.9962 57.7811 58.5161 58.4827 58.0731C58.9996 58.4054 59.4058 58.9223 59.6273 59.4762C59.8119 59.8454 59.9227 60.2146 59.9596 60.5839C58.8888 61.2854 57.855 62.0978 56.8949 62.9839C57.0057 62.8732 57.0796 62.7255 57.1165 62.5778C57.2272 62.3932 57.3011 62.0608 57.338 61.4331C57.338 60.9531 57.0426 60.2146 56.5626 59.6977C56.5257 59.6239 56.4518 59.5869 56.4149 59.55ZM63.4305 55.6361C65.5351 54.8976 67.7875 54.4176 70.1507 54.2699C70.0768 54.3807 70.0399 54.4914 69.966 54.6022C69.1906 55.8576 67.7875 56.5961 65.4613 56.153C64.7967 56.0422 64.132 55.8576 63.4305 55.6361ZM89.2034 91.8585C88.6496 92.6709 88.0219 93.4093 87.3942 94.1109C87.468 94.2955 87.5419 94.4801 87.6157 94.5909C87.6896 94.6278 87.6896 94.6647 87.7265 94.6647C87.8003 94.6647 87.9111 94.5909 88.0588 94.4801C88.2065 94.3694 88.3911 94.1847 88.5388 93.9263C88.6865 93.6309 88.8342 93.2986 88.945 92.8924C89.0557 92.5601 89.1296 92.2278 89.2034 91.8585Z" fill="#E31E24"/>
<defs>
<filter id="filter0_d_563_18" x="0" y="0" width="148" height="148" filterUnits="userSpaceOnUse" color-interpolation-filters="sRGB">
<feFlood flood-opacity="0" result="BackgroundImageFix"/>
<feColorMatrix in="SourceAlpha" type="matrix" values="0 0 0 0 0 0 0 0 0 0 0 0 0 0 0 0 0 0 127 0" result="hardAlpha"/>
<feOffset/>
<feGaussianBlur stdDeviation="7"/>
<feComposite in2="hardAlpha" operator="out"/>
<feColorMatrix type="matrix" values="0 0 0 0 0 0 0 0 0 0 0 0 0 0 0 0 0 0 0.05 0"/>
<feBlend mode="normal" in2="BackgroundImageFix" result="effect1_dropShadow_563_18"/>
<feBlend mode="normal" in="SourceGraphic" in2="effect1_dropShadow_563_18" result="shape"/>
</filter>
</defs>
</svg>
