<svg width="148" height="148" viewBox="0 0 148 148" fill="none" xmlns="http://www.w3.org/2000/svg">
<g filter="url(#filter0_d_563_23)">
<circle cx="74" cy="74" r="60" fill="#FDF5F5"/>
<circle cx="74" cy="74" r="57" stroke="white" stroke-width="6"/>
</g>
<path fill-rule="evenodd" clip-rule="evenodd" d="M95.4499 87.6969C95.3389 90.6914 91.5682 95.6821 89.9046 98.1221L87.7974 97.5675C91.9009 94.2404 92.4554 91.3568 95.4499 87.6969ZM103.546 78.6027V87.8078L103.213 89.8041C102.881 91.4677 102.437 92.5768 101.439 93.7967C100.108 95.4603 99.1097 95.5712 98.5552 96.2367C98.0007 96.9021 97.3353 100.451 96.8916 104H88.1301C88.241 102.558 88.3519 100.895 88.5737 99.342C86.4665 97.013 82.4739 95.6821 85.1356 91.8004C86.7992 89.3605 89.2391 87.586 90.0155 84.1479L84.692 80.0444C83.2502 81.8189 79.0358 88.5842 78.9249 90.0259C80.6994 92.1332 83.472 92.4659 83.5829 95.4603L77.0395 90.5805C77.2613 88.4733 77.9268 89.0278 78.2595 87.1424L75.5977 87.586L76.0414 85.1461C74.5996 86.9206 74.5996 87.6969 72.0487 87.6969C64.2853 87.8078 59.8491 83.5934 58.5183 83.1498C58.5183 94.2404 58.4073 87.8078 60.0709 95.4603C60.6255 97.9003 61.0691 100.895 61.4018 104H52.7512C52.5293 101.449 51.8639 98.7875 50.9767 96.0149C46.6513 94.0186 45.9859 90.5805 45.875 85.7006V85.257V84.7025V84.1479C45.9859 57.5306 58.4073 58.7505 60.4036 65.4049C61.2909 68.2884 60.2927 70.6174 60.4036 73.2792L59.4055 73.6119C59.96 76.4954 62.6218 78.6027 65.0617 79.8226C68.8325 81.5971 71.0506 80.7099 74.7105 81.5971C76.485 80.3771 79.2576 80.4881 82.1412 78.3808C89.2391 72.8356 88.1301 56.1997 97.2243 62.5213C100.995 65.1831 102.881 72.0592 103.546 78.6027ZM95.8935 86.6988L95.4499 87.6969L95.8935 86.6988ZM96.3371 85.7006L95.8935 86.6988L96.3371 85.7006ZM96.7807 84.7025L96.3371 85.7006L96.7807 84.7025ZM76.0414 85.1461L76.2632 84.1479L76.0414 85.1461ZM97.2243 83.1498L96.7807 84.7025L97.2243 83.1498ZM75.5977 82.7062L76.0414 83.5934L75.5977 82.7062ZM97.2243 83.1498C97.5571 80.8208 97.8898 81.9298 97.2243 83.1498V83.1498ZM58.5183 83.1498L58.0746 82.7062L58.5183 83.1498ZM75.5977 82.7062L75.1541 82.1516L75.5977 82.7062ZM58.0746 82.7062L57.631 82.1516L58.0746 82.7062ZM75.1541 82.1516L74.7105 81.5971L75.1541 82.1516ZM57.631 82.1516L57.1874 81.5971L57.631 82.1516ZM90.0155 84.1479L90.3482 82.8171L88.5737 81.2644C89.0173 79.8226 88.5737 80.8208 89.2391 79.7117C89.7937 78.8245 89.7937 78.9354 90.0155 78.6027L91.0136 81.4862C91.4572 82.7062 90.9027 83.4825 90.0155 84.1479ZM57.1874 81.5971L56.7438 81.1535L57.1874 81.5971ZM56.7438 81.1535L56.1892 80.599L56.7438 81.1535ZM56.1892 80.599L55.7456 80.1553L56.1892 80.599ZM55.7456 80.1553L55.302 79.6008L55.7456 80.1553ZM54.8584 78.6027L55.302 79.6008L54.8584 78.6027ZM54.8584 78.6027L54.4147 78.159L54.8584 78.6027ZM53.9711 77.1609L54.4147 78.159L53.9711 77.1609ZM53.5275 76.1627L53.9711 77.1609L53.5275 76.1627ZM53.0839 75.1646L53.5275 76.1627L53.0839 75.1646ZM58.9619 72.6137L59.4055 73.6119L58.9619 72.6137Z" fill="#E31E24"/>
<path fill-rule="evenodd" clip-rule="evenodd" d="M84.5811 44.5545C83.9157 44.7763 82.0303 44.4436 80.1449 47.9926C76.5959 54.3142 81.3648 62.6322 88.5737 61.0795C97.1134 59.1941 96.0044 45.22 88.3519 44H86.1338C84.692 44.2218 85.0247 44.4436 84.5811 44.5545Z" fill="#E31E24"/>
<path fill-rule="evenodd" clip-rule="evenodd" d="M60.1818 44.5545C55.1911 46.2181 53.9711 51.5416 55.302 55.6451C58.6291 66.1811 73.1578 60.525 70.1633 50.0998C69.6088 48.1035 68.3889 46.2181 66.8362 45.22C66.0598 44.5545 64.729 44.1109 63.6199 44H61.7345C60.4036 44.2218 60.6255 44.4436 60.1818 44.5545Z" fill="#E31E24"/>
<path fill-rule="evenodd" clip-rule="evenodd" d="M83.6938 91.6894C85.5792 91.1349 87.7974 87.3641 88.241 85.146C87.1319 85.7005 86.5774 86.5878 85.8011 87.9186C85.0247 89.1386 84.3593 90.3586 83.6938 91.6894Z" fill="#E31E24"/>
<path fill-rule="evenodd" clip-rule="evenodd" d="M82.0302 90.1366L86.0228 83.7041C84.2483 84.2586 84.1374 84.9241 83.1392 86.5877C82.1411 88.2512 81.2538 88.6949 82.0302 90.1366Z" fill="#E31E24"/>
<defs>
<filter id="filter0_d_563_23" x="0" y="0" width="148" height="148" filterUnits="userSpaceOnUse" color-interpolation-filters="sRGB">
<feFlood flood-opacity="0" result="BackgroundImageFix"/>
<feColorMatrix in="SourceAlpha" type="matrix" values="0 0 0 0 0 0 0 0 0 0 0 0 0 0 0 0 0 0 127 0" result="hardAlpha"/>
<feOffset/>
<feGaussianBlur stdDeviation="7"/>
<feComposite in2="hardAlpha" operator="out"/>
<feColorMatrix type="matrix" values="0 0 0 0 0 0 0 0 0 0 0 0 0 0 0 0 0 0 0.05 0"/>
<feBlend mode="normal" in2="BackgroundImageFix" result="effect1_dropShadow_563_23"/>
<feBlend mode="normal" in="SourceGraphic" in2="effect1_dropShadow_563_23" result="shape"/>
</filter>
</defs>
</svg>
