<svg width="80" height="80" viewBox="0 0 80 80" fill="none" xmlns="http://www.w3.org/2000/svg">
<circle opacity="0.05" cx="40" cy="40" r="40" fill="#426DC0"/>
<path fill-rule="evenodd" clip-rule="evenodd" d="M32.0064 33.2688V58.7382C32.0064 59.5021 32.2476 59.7232 33.0718 59.7232H45.4548V33.2688C45.4548 32.0426 43.0023 31.3591 43.0023 32.9271V40.385H34.479V31.9019C33.2729 32.1632 32.0064 32.0225 32.0064 33.2688Z" fill="#426DC0"/>
<path fill-rule="evenodd" clip-rule="evenodd" d="M52.8925 59.0596C53.6162 60.507 52.973 61.0899 51.4854 60.4266C51.807 59.2405 51.6663 59.3612 52.8925 59.0596ZM50.7818 59.723C50.7818 60.6477 50.9426 60.6678 51.1236 61.4518C54.0384 62.0749 53.4152 61.4116 54.4605 59.5421C55.3651 57.9339 54.4806 59.3209 56.0687 58.356C56.8326 57.9138 57.1542 57.5721 57.1542 56.3458C57.1542 54.2753 55.1842 55.5618 59.4257 48.6668C61.0138 46.1138 60.7927 46.8978 62.4411 46.1339C65.0543 44.968 66.0795 41.0481 63.5266 40.3847C62.9838 42.5558 62.5215 42.7568 61.054 42.7568C58.4407 42.7568 60.4711 39.6208 60.7123 38.6962C57.4959 38.7565 56.8125 40.8069 56.8125 43.0985C56.8125 45.5711 58.1191 43.7619 56.8527 47.2195C56.33 48.6869 55.747 49.7724 55.3852 51.2399C53.8373 50.1745 50.621 41.611 49.5958 39.4801C49.2139 38.7163 48.9927 38.3142 48.6912 37.6106L47.5856 35.6406C47.5856 38.1132 47.5856 40.626 47.5856 43.0985C47.5655 48.1844 48.4098 48.9683 51.1437 54.6573C53.3147 59.14 50.7818 57.6726 50.7818 59.723Z" fill="#426DC0"/>
<path fill-rule="evenodd" clip-rule="evenodd" d="M23.5032 49.5513C21.9352 47.8426 22.679 48.1643 21.0306 48.5261C20.5683 46.6365 19.4024 45.4907 18.7993 43.5408C18.3772 42.1738 18.7591 42.1135 18.0555 40.8471C17.4525 39.8018 17.1107 39.7616 16.769 38.3544C15.8242 38.4348 15.8041 38.4951 15 38.6962C15.3216 42.4553 17.2112 43.1588 17.7942 44.4856C21.4126 52.5666 18.8998 47.8225 18.8998 49.893C18.8998 51.5414 19.5833 51.7022 20.6688 52.2651L20.7693 54.9387C20.709 56.2453 19.9049 56.3458 20.7693 57.5721C21.5935 58.7782 22.1564 58.1751 22.9806 59.2405C23.2017 59.5421 23.9857 61.3312 24.2269 61.7734L27.0613 60.7884C27.785 60.2859 27.3829 60.9693 27.7448 60.0848C27.785 60.0245 27.8051 59.8436 27.8051 59.8838L27.8855 59.4818C27.8051 58.0746 26.3175 56.6876 26.3175 55.6624C26.3175 53.9939 29.3127 49.1292 29.9359 47.2396C30.6998 44.9881 30.2374 38.7163 30.2374 35.6406C29.2926 36.2839 23.8851 48.0034 23.5032 49.5513Z" fill="#426DC0"/>
<path fill-rule="evenodd" clip-rule="evenodd" d="M32.71 24.082C32.71 31.6203 41.0524 31.0575 43.4043 28.5648C48.6711 23.0367 40.3689 16.0211 34.8207 20.343C34.0166 20.9863 32.71 22.7151 32.71 24.082Z" fill="#426DC0"/>
</svg>
