<svg width="80" height="80" viewBox="0 0 80 80" fill="none" xmlns="http://www.w3.org/2000/svg">
<circle opacity="0.05" cx="40" cy="40" r="40" fill="#DE3432"/>
<path fill-rule="evenodd" clip-rule="evenodd" d="M27.5508 56.8438C28.8048 57.8124 29.5134 58.0265 31.3282 58.3935C31.578 56.2321 31.0172 53.1429 31.889 51.4453C31.9807 51.5422 32.0776 51.583 32.098 51.7716L32.4446 52.4955C32.4752 52.6178 32.5211 52.7657 32.5517 52.9135L32.6485 58.7249C37.8482 60.4836 42.0436 59.5813 47.233 58.9848C47.3707 57.0222 46.555 52.3731 48.1047 51.4657L48.538 58.4292C51.2653 57.8175 52.2593 58.0571 52.4938 54.9628C53.0495 47.5711 48.9764 42.6161 42.7725 44.4972C36.9561 46.261 35.3911 41.724 30.6502 45.5524C27.0665 48.453 27.3112 51.2414 27.5508 56.8438Z" fill="#E31E24"/>
<path fill-rule="evenodd" clip-rule="evenodd" d="M45.8516 42.9373C50.0215 43.7173 51.3877 45.634 53.0393 48.8201L59.651 48.035C59.9569 45.3383 59.4012 42.3154 60.2679 40.5771C60.6757 41.1531 60.5329 40.6637 60.7878 41.7903C60.956 42.5091 60.9611 42.9934 60.9764 43.7326C60.9968 44.8388 60.9306 46.1438 60.9204 47.2805L64.7385 46.3069C65.493 40.6637 64.7334 36.2287 60.8898 34.0112C57.821 32.2372 57.1022 33.1548 54.4106 33.8532C50.8218 34.7912 50.1387 33.2313 46.9883 33.0274C48.589 39.165 47.9161 38.1608 45.8516 42.9373Z" fill="#E31E24"/>
<path fill-rule="evenodd" clip-rule="evenodd" d="M15.1838 46.3223L18.9459 47.4489C19.1855 42.2034 18.4668 42.1575 19.731 40.618C20.5313 42.4328 19.991 45.5373 20.3121 47.8159L26.7913 48.9119C29.126 45.1957 29.5491 43.9723 34.0708 42.912C31.9196 38.1609 31.3894 38.8032 32.9799 33.0428C30.0079 33.1754 29.3198 34.618 25.9961 33.9757C23.1413 33.4251 22.7437 32.115 19.4302 33.7616C15.1991 35.8618 14.6129 40.6384 15.1838 46.3223Z" fill="#E31E24"/>
<path fill-rule="evenodd" clip-rule="evenodd" d="M37.7616 30.7794C29.6257 33.5475 33.3317 46.516 42.3036 43.5746C50.3529 40.9289 46.652 27.7565 37.7616 30.7794Z" fill="#E31E24"/>
<path fill-rule="evenodd" clip-rule="evenodd" d="M50.5568 19.7583C41.9977 22.4907 45.5457 35.0361 54.3545 32.7778C62.8269 30.6062 59.2126 16.9903 50.5568 19.7583Z" fill="#E31E24"/>
<path fill-rule="evenodd" clip-rule="evenodd" d="M25.782 19.7376C17.0088 22.3221 20.6078 34.7503 29.1362 32.8183C37.9298 30.82 34.4888 17.1734 25.782 19.7376Z" fill="#E31E24"/>
</svg>
