<svg width="80" height="80" viewBox="0 0 80 80" fill="none" xmlns="http://www.w3.org/2000/svg">
<circle opacity="0.05" cx="40" cy="40" r="40" fill="#F4832B"/>
<path fill-rule="evenodd" clip-rule="evenodd" d="M58.6775 45.6054C59.3726 47.0727 59.5753 48.7911 59.5367 49.2255C59.5174 49.4283 60.7724 49.5634 62.0853 49.4572C62.7224 49.3993 63.3693 49.1483 63.8906 48.7718C65.2035 47.8257 65.0008 46.2039 64.9718 44.5627C64.8946 40.817 64.7304 34.2235 64.3926 31.8872C64.3057 31.2501 64.3153 31.0087 63.6878 30.7867C63.1279 30.5743 62.4907 30.6322 62.4907 30.6322C62.5487 30.6322 62.6066 31.8679 62.4521 33.596C62.3266 34.9765 62.2494 36.2508 61.6219 37.2837C60.7048 38.7801 58.7547 39.3303 57.1329 39.6103C55.482 39.8903 53.6768 39.9289 52.1322 39.9096C50.0662 39.8806 47.9907 39.871 45.9247 39.871C41.1364 39.8613 36.3481 39.8903 31.5598 39.8517C29.7449 39.842 27.9396 39.813 26.1343 39.7648C20.7185 39.62 17.7258 39.5138 17.5617 33.8856C17.5134 32.2444 17.5038 30.6322 17.5038 30.6322C17.5038 30.6322 16.8763 30.5743 16.3067 30.7867C15.6792 31.0087 15.6888 31.2501 15.602 31.8872C15.2641 34.2235 15.1096 40.817 15.0324 44.5627C14.9938 46.2039 14.8007 47.8257 16.1136 48.7718C16.6253 49.1483 17.2817 49.3993 17.9092 49.4572C19.2222 49.5634 20.4772 49.4283 20.4578 49.2255C20.4385 48.9263 20.5351 48.0285 20.815 47.0148C20.9405 46.5611 21.1047 46.0687 21.317 45.6054C21.4232 45.364 21.9928 44.7944 22.7072 44.6303C23.9719 44.3503 26.0088 44.331 28.3257 44.3503C36.1454 44.4179 44.1484 44.4855 51.9487 44.3503C54.2174 44.3117 56.2447 44.2924 57.4804 44.5531C58.243 44.7172 58.5616 45.3544 58.6775 45.6054ZM25.0338 45.4605H54.8932C55.9647 45.4605 56.8432 46.339 56.8432 47.401C56.8432 48.4725 55.9647 49.351 54.8932 49.351H25.0338C23.9622 49.351 23.0837 48.4725 23.0837 47.401C23.0837 46.339 23.9622 45.4605 25.0338 45.4605ZM20.0717 30.6805H59.7008V34.04C59.7008 35.9805 58.1079 37.5637 56.1675 37.5637H23.605C21.6646 37.5637 20.0717 35.9805 20.0717 34.04V30.6805ZM22.4465 34.9571H57.8183V35.6619H22.4465V34.9571ZM22.4465 32.1961H57.8183V32.9009H22.4465V32.1961Z" fill="#F4832B"/>
</svg>
