<svg width="80" height="80" viewBox="0 0 80 80" fill="none" xmlns="http://www.w3.org/2000/svg">
<circle opacity="0.05" cx="40" cy="40" r="40" fill="#1F90CD"/>
<path fill-rule="evenodd" clip-rule="evenodd" d="M32.6903 19.2277C32.6903 20.3395 32.2519 19.8697 30.6859 21.4044C29.8716 22.2031 29.4331 22.8138 28.5405 23.4089C26.583 22.3753 24.375 18.617 24.375 22.3596C24.375 25.5073 26.9119 28.9524 30.3101 29.2969C34.6008 29.7511 31.9543 29.1717 37.7798 35.0284C38.5471 35.7801 39.1578 36.3438 39.8782 37.1112L49.1957 47.2587C52.4217 51.017 49.415 51.9566 52.312 55.2765C53.9563 57.1557 55.3031 57.9856 58.6386 57.9856C59.1554 55.5584 57.1979 56.2004 56.5715 53.7888C57.6364 52.1915 59.312 50.5473 61.0659 49.6077L62.9294 51.5965C66.1553 55.5114 65.9047 44.4399 58.9361 43.7196C56.4462 43.4534 57.0883 44.1111 55.5849 42.5608L39.1422 24.5833C37.5762 22.4693 39.7686 20.9816 37.1377 17.8653C34.4286 14.655 28.8224 13.7781 31.2496 17.1293C31.8134 17.881 32.6903 18.3507 32.6903 19.2277Z" fill="#1671A3"/>
<path fill-rule="evenodd" clip-rule="evenodd" d="M29.19 57.2963C18.9328 57.2963 20.2639 42.9676 28.8298 42.9676C32.6038 42.9676 35.7984 46.0526 36.0177 50.0302C36.2212 53.6476 32.87 57.2963 29.19 57.2963ZM25.0401 36.3279V39.4755C23.4585 39.6008 22.6599 40.509 21.5793 41.2294C18.1498 39.3972 17.821 39.914 16.3803 42.6075C15.7696 43.7819 13.1231 46.6947 17.4138 47.8691V52.4105C15.2684 53.538 13.3736 53.7416 17.1946 59.2695C18.604 61.2896 20.029 59.8489 21.5793 59.0346L25.0401 61.133C25.0401 65.596 25.4003 64.9696 30.5837 64.9696C31.492 64.9696 31.5233 64.813 32.3063 64.6251C32.917 63.3567 32.9953 62.7146 32.9953 60.7885C34.5456 60.6475 35.3756 59.7706 36.4561 59.0346C36.785 59.3164 36.4405 59.0815 37.0512 59.4887C37.3018 59.661 37.3018 59.6766 37.7089 59.8959C39.9326 61.0703 40.5277 59.3634 41.5456 57.5469C42.1093 56.4977 44.6775 53.444 40.2615 52.4105V47.8691C46.2748 46.4441 39.682 40.1802 39.2122 40.1802C37.6463 40.1802 38.0378 40.3838 36.4561 41.2294C35.2033 40.556 34.4987 39.82 32.9953 39.4755C32.9953 34.9185 32.0244 35.2787 27.4518 35.2787C26.199 35.2787 25.7762 35.8268 25.0401 36.3279Z" fill="#1671A3"/>
<path fill-rule="evenodd" clip-rule="evenodd" d="M23.3019 49.9522C23.3019 57.97 34.3734 57.0931 34.3734 51.0014V49.2475C34.3734 43.1402 23.3019 42.7957 23.3019 49.9522Z" fill="#1671A3"/>
</svg>
