<svg width="80" height="80" viewBox="0 0 80 80" fill="none" xmlns="http://www.w3.org/2000/svg">
<circle cx="40" cy="40" r="40" fill="#F9F9F9"/>
<path d="M34.2906 39.4882C35.6243 42.2148 37.8344 44.4149 40.5671 45.7361C40.767 45.8308 40.9881 45.8719 41.2088 45.8552C41.4294 45.8385 41.6418 45.7646 41.8252 45.6409L45.8488 42.9579C46.0268 42.8392 46.2315 42.7668 46.4445 42.7473C46.6575 42.7277 46.872 42.7616 47.0686 42.8458L54.596 46.0718C54.8517 46.1805 55.0652 46.3692 55.2043 46.6097C55.3433 46.8502 55.4005 47.1294 55.3671 47.4052C55.1292 49.267 54.2209 50.9781 52.8121 52.2183C51.4034 53.4586 49.5909 54.1428 47.7141 54.1429C41.9172 54.1429 36.3578 51.8401 32.2587 47.7411C28.1597 43.642 25.8569 38.0826 25.8569 32.2857C25.857 30.4089 26.5412 28.5964 27.7815 27.1877C29.0217 25.7789 30.7328 24.8706 32.5946 24.6327C32.8704 24.5993 33.1496 24.6564 33.3901 24.7955C33.6305 24.9346 33.8193 25.1481 33.928 25.4038L37.1568 32.9378C37.2403 33.1326 37.2743 33.3451 37.2558 33.5563C37.2374 33.7675 37.1669 33.9709 37.0508 34.1483L34.3771 38.2336C34.2554 38.4174 34.1835 38.6296 34.1683 38.8495C34.1532 39.0694 34.1953 39.2894 34.2906 39.4882V39.4882Z" stroke="#DE3432" stroke-width="2" stroke-linecap="round" stroke-linejoin="round"/>
</svg>
